<svg xmlns="http://www.w3.org/2000/svg" viewBox="0 0 80 80" fill="none">
  <!-- Shield outline -->
  <path d="
    M10 8
    L70 8
    L70 48
    C70 56 64 64 56 68
    L40 76
    L24 68
    C16 64 10 56 10 48
    Z
  " stroke="#2A2A2A" stroke-width="2" fill="none"/>
  
  <!-- Inner shield -->
  <path d="
    M14 12
    L66 12
    L66 47
    C66 54 61 61 54 65
    L40 72
    L26 65
    C19 61 14 54 14 47
    Z
  " stroke="#2A2A2A" stroke-width="1.5" fill="none"/>
  
  <!-- PORSCHE text at top -->
  <text x="40" y="22" font-family="Arial, Helvetica, sans-serif" font-size="7" font-weight="bold" fill="#2A2A2A" text-anchor="middle" letter-spacing="2">PORSCHE</text>
  
  <!-- Center horse area - simplified prancing horse silhouette -->
  <!-- Horse body -->
  <path d="
    M35 30
    C36 28 38 27 40 27
    C42 27 43 28 44 30
    C45 32 46 34 46 36
    C46 38 45 40 44 42
    L46 46
    L48 50
    L46 50
    L44 47
    L42 44
    C41 45 39 45 38 44
    L36 47
    L34 50
    L32 50
    L34 46
    L36 42
    C35 40 34 38 34 36
    C34 34 34 32 35 30
    Z
  " fill="#2A2A2A"/>
  
  <!-- Horse head -->
  <path d="
    M40 27
    C40 25 41 23 42 22
    C42.5 21.5 43 22 43 23
    C43 24 42.5 25.5 42 27
  " fill="#2A2A2A"/>
  
  <!-- Horse mane -->
  <path d="
    M42 24
    C43 23 44 23 44.5 24
    C44 25 43 26 42 27
  " fill="#2A2A2A"/>
  
  <!-- Horizontal divider lines -->
  <line x1="18" y1="25" x2="62" y2="25" stroke="#2A2A2A" stroke-width="1"/>
  <line x1="16" y1="53" x2="64" y2="53" stroke="#2A2A2A" stroke-width="1"/>
  
  <!-- Bottom section: Stuttgart text -->
  <text x="40" y="61" font-family="Arial, Helvetica, sans-serif" font-size="5" fill="#2A2A2A" text-anchor="middle" letter-spacing="1">STUTTGART</text>
  
  <!-- Antler decorations (simplified) left side -->
  <path d="M20 30 C22 28 24 30 22 34 C20 38 18 36 20 30Z" fill="#2A2A2A"/>
  <path d="M22 36 C24 34 26 36 24 40 C22 44 20 42 22 36Z" fill="#2A2A2A"/>
  <path d="M24 42 C26 40 28 42 26 46 C24 50 22 48 24 42Z" fill="#2A2A2A"/>
  
  <!-- Antler decorations right side -->
  <path d="M60 30 C58 28 56 30 58 34 C60 38 62 36 60 30Z" fill="#2A2A2A"/>
  <path d="M58 36 C56 34 54 36 56 40 C58 44 60 42 58 36Z" fill="#2A2A2A"/>
  <path d="M56 42 C54 40 52 42 54 46 C56 50 58 48 56 42Z" fill="#2A2A2A"/>
  
  <!-- Stripe patterns (red/black in original, using dark for monochrome) -->
  <line x1="20" y1="28" x2="20" y2="50" stroke="#2A2A2A" stroke-width="0.5"/>
  <line x1="60" y1="28" x2="60" y2="50" stroke="#2A2A2A" stroke-width="0.5"/>
</svg>
